<svg width="24" height="24" viewBox="0 0 24 24" fill="none" xmlns="http://www.w3.org/2000/svg">
<g clip-path="url(#clip0)">
<path d="M17.5 12C17.2238 12 16.9999 11.7761 16.9999 11.5C16.9999 11.2239 17.2238 11 17.5 11C20.26 10.9967 22.4967 8.76006 22.5 6.00002V2.00003H18C17.7238 2.00003 17.5 1.77616 17.5 1.50002C17.5 1.22388 17.7238 1 18 1H23C23.2761 1 23.5 1.22388 23.5 1.50002V6.00002C23.4961 9.31211 20.8121 11.9962 17.5 12Z" fill="#FFA000"/>
<path d="M6.5 12C3.18791 11.9962 0.503844 9.31211 0.5 6.00002V1.50002C0.5 1.22388 0.723875 1 1.00002 1H5.99998C6.27612 1 6.5 1.22388 6.5 1.50002C6.5 1.77616 6.27612 2.00003 5.99998 2.00003H1.49998V6.00002C1.50331 8.76006 3.73995 10.9967 6.5 11C6.77614 11 7.00002 11.2239 7.00002 11.5C6.99997 11.7761 6.77614 12 6.5 12Z" fill="#FFA000"/>
<path d="M15.127 19.928L14.858 19.652C13.81 18.574 13.522 15.56 13.5 14.49C13.4946 14.2177 13.2723 14 13 14H11C10.7281 14 10.506 14.2172 10.5 14.489C10.479 15.559 10.191 18.571 9.14196 19.651L8.87294 19.927C7.49992 21.34 6.49994 22.361 6.49994 23.5C6.49994 23.7762 6.72381 24 6.99996 24H17C17.2761 24 17.5 23.7762 17.5 23.5C17.5 22.361 16.5 21.34 15.127 19.928Z" fill="#FFA000"/>
<path d="M18 0H6.00002C5.72388 0 5.5 0.223875 5.5 0.500016V8.50003C5.54688 12.0703 8.42973 14.9531 12 15C15.5703 14.9531 18.4532 12.0703 18.5 8.49998V0.500016C18.5 0.223875 18.2762 0 18 0Z" fill="#FFC107"/>
</g>
<defs>
<clipPath id="clip0">
<rect width="24" height="24" fill="white"/>
</clipPath>
</defs>
</svg>
