<svg width="72" height="80" viewBox="0 0 72 80" fill="none" xmlns="http://www.w3.org/2000/svg">
<g clip-path="url(#clip0)">
<path d="M36.0872 80H35.9128C35.7385 80 35.5641 80 35.3898 80C35.3898 80 35.3898 80 35.2155 80C33.9951 79.8257 32.9491 79.4771 31.9031 78.78L4.00967 63.268C1.56899 61.8736 -2.00309e-05 59.4336 -2.00309e-05 56.4706V24.0523C-2.00309e-05 23.878 -2.00309e-05 23.878 -2.00309e-05 23.7037C-0.174354 20.7407 1.39465 18.1264 4.00967 16.732L32.4261 1.04575C33.6465 0.348584 34.8668 0 36.0872 0C37.4818 0 39.0508 0.522876 40.9685 1.74292L67.9903 16.9063C70.431 18.3007 72 20.915 72 23.7037V23.878V56.2963V56.4706C72 59.2593 70.6053 61.8736 67.9903 63.268L40.0968 78.78C39.0508 79.4771 38.0048 79.8257 36.7845 80C36.7845 80 36.7845 80 36.6101 80C36.4358 80 36.2615 80 36.0872 80C36.2615 80 36.0872 80 36.0872 80ZM2.61499 56.4706C2.61499 58.3878 3.661 60.1307 5.23 61.0022L33.2978 76.5142C33.9951 76.8627 34.6925 77.2113 35.3898 77.2113H35.5641C35.7385 77.2113 35.7385 77.2113 35.9128 77.2113H36.0872H36.2615C36.4358 77.2113 36.4358 77.2113 36.6101 77.2113C37.3075 77.037 38.1792 76.8627 38.7022 76.5142L66.5956 61.0022C68.1646 60.1307 69.2106 58.3878 69.2106 56.4706V56.2963V23.878C69.2106 23.878 69.2106 23.878 69.2106 23.7037C69.2106 21.7865 68.339 20.0436 66.5956 19.1721L39.7482 4.00871C38.1792 3.13725 37.1332 2.61438 36.0872 2.61438C35.3898 2.61438 34.6925 2.78867 33.6465 3.31155L5.23 19.1721C3.48666 20.0436 2.61499 21.7865 2.61499 23.7037V24.0523V56.4706Z" fill="white"/>
<path d="M14.644 41.1329L13.4237 39.5643V44.4444C13.4237 45.4902 12.7263 46.0131 11.8547 46.0131C10.983 46.0131 10.2856 45.4902 10.2856 44.4444V36.2527C10.2856 35.207 11.1573 34.5098 11.8547 34.5098C12.3777 34.5098 13.075 34.8584 13.4237 35.3813L15.69 38.1699L17.9563 35.3813C18.305 34.8584 19.0023 34.5098 19.5254 34.5098C20.397 34.5098 21.2687 35.207 21.2687 36.2527V44.4444C21.2687 45.4902 20.5714 46.0131 19.6997 46.0131C18.828 46.0131 18.1307 45.4902 18.1307 44.4444V39.5643L16.9103 41.1329C16.5617 41.6558 16.213 41.8301 15.69 41.8301C15.3413 41.6558 14.9927 41.4815 14.644 41.1329Z" fill="white"/>
<path d="M24.2323 45.8388C23.1863 45.8388 22.6633 45.3159 22.6633 44.2702V36.0784C22.6633 35.0327 23.1863 34.5098 24.2323 34.5098H29.4624C30.5084 34.5098 31.0314 35.207 31.0314 36.0784C31.0314 36.9499 30.5084 37.6471 29.4624 37.6471H25.627V38.6928H28.765C29.6367 38.6928 30.1597 39.39 30.1597 40.0871C30.1597 40.7843 29.6367 41.4815 28.765 41.4815H25.627V42.5272H29.4624C30.5084 42.5272 31.0314 43.2244 31.0314 44.0959C31.0314 44.9673 30.5084 45.6645 29.4624 45.6645H24.2323V45.8388Z" fill="white"/>
<path d="M34.8668 45.8388V46.536C34.8668 47.5817 34.1694 48.1046 33.2978 48.1046C32.4261 48.1046 31.7288 47.5817 31.7288 46.536V44.2702C31.7288 43.3987 32.0774 42.8758 32.7748 42.7015C33.6464 41.6558 34.6924 38.8671 34.6924 36.0784C34.6924 35.0327 35.2154 34.5098 36.2614 34.5098H40.6198C41.6658 34.5098 42.1888 35.0327 42.1888 36.0784V42.7015C43.2348 42.7015 43.7578 43.2244 43.7578 44.2702V46.536C43.7578 47.5817 43.0605 48.1046 42.1888 48.1046C41.3171 48.1046 40.6198 47.5817 40.6198 46.536V45.8388H34.8668ZM39.0508 37.6471H37.8305C37.6561 39.7386 37.3074 41.3072 36.6101 42.7015H39.0508V37.6471Z" fill="white"/>
<path d="M47.4188 39.7386L50.3824 35.3813C50.7311 34.8584 51.2541 34.5098 51.7771 34.5098C52.4745 34.5098 53.1718 35.0327 53.1718 36.0784V44.4444C53.1718 45.4902 52.4745 45.8388 51.7771 45.8388C50.9054 45.8388 50.2081 45.3159 50.2081 44.4444V40.7843L47.2444 45.1416C46.8958 45.6645 46.3728 46.0131 45.8498 46.0131C45.1524 46.0131 44.4551 45.4902 44.4551 44.4444V36.0784C44.4551 35.0327 45.1524 34.6841 45.8498 34.6841C46.7214 34.6841 47.4188 35.207 47.4188 36.0784V39.7386Z" fill="white"/>
<path d="M57.5303 44.4444C57.5303 45.4902 56.833 46.0131 55.9613 46.0131C55.0897 46.0131 54.3923 45.4902 54.3923 44.4444V36.0784C54.3923 35.0327 55.0897 34.5098 55.9613 34.5098C56.833 34.5098 57.5303 35.0327 57.5303 36.0784V38.6928L60.1454 35.0327C60.494 34.5098 60.6684 34.5098 61.3657 34.5098C62.4117 34.5098 62.9347 35.207 62.9347 36.0784C62.9347 36.427 62.7604 36.7756 62.586 37.1242L59.971 40.0871L62.586 43.3987C62.7604 43.7473 62.9347 44.0959 62.9347 44.4444C62.9347 45.4902 62.2374 46.0131 61.3657 46.0131C60.8427 46.0131 60.494 45.8388 60.1454 45.3159L57.5303 41.6558V44.4444Z" fill="white"/>
<path d="M6.62432 41.8301C7.39439 41.8301 8.01865 41.2058 8.01865 40.4357C8.01865 39.6657 7.39439 39.0414 6.62432 39.0414C5.85425 39.0414 5.22998 39.6657 5.22998 40.4357C5.22998 41.2058 5.85425 41.8301 6.62432 41.8301Z" fill="white"/>
<path d="M65.7237 41.8301C66.4937 41.8301 67.118 41.2058 67.118 40.4357C67.118 39.6657 66.4937 39.0414 65.7237 39.0414C64.9536 39.0414 64.3293 39.6657 64.3293 40.4357C64.3293 41.2058 64.9536 41.8301 65.7237 41.8301Z" fill="white"/>
</g>
<defs>
<clipPath id="clip0">
<rect width="72" height="80" fill="white"/>
</clipPath>
</defs>
</svg>
