<svg width="64" height="64" viewBox="0 0 64 64" fill="none" xmlns="http://www.w3.org/2000/svg">
<path d="M54.6274 9.3725C48.5834 3.3285 40.5475 0 32 0C23.4524 0 15.4165 3.32863 9.3725 9.3725C3.32863 15.4165 0 23.4525 0 32C0 40.5476 3.32863 48.5835 9.3725 54.6275C15.4165 60.6714 23.4524 64 32 64C40.5475 64 48.5834 60.6714 54.6274 54.6275C60.6714 48.5834 64 40.5475 64 32C64 23.4525 60.6714 15.4166 54.6274 9.3725ZM50.1109 33.5602L26.0107 49.6268C25.697 49.836 25.3344 49.9417 24.9706 49.9417C24.6672 49.9417 24.3633 49.8683 24.086 49.7199C23.4764 49.3937 23.0958 48.7583 23.0958 48.0667V15.9334C23.0958 15.2419 23.4764 14.6065 24.086 14.2802C24.6955 13.954 25.4354 13.9896 26.0107 14.3734L50.1109 30.44C50.6325 30.7878 50.9459 31.3733 50.9459 32.0001C50.9457 32.6271 50.6325 33.2124 50.1109 33.5602Z" fill="white"/>
</svg>
